<?xml version="1.0" encoding="utf-8"?>
<!-- Generator: Adobe Illustrator 19.0.0, SVG Export Plug-In . SVG Version: 6.00 Build 0)  -->
<svg version="1.1" id="Layer_1" xmlns="http://www.w3.org/2000/svg" xmlns:xlink="http://www.w3.org/1999/xlink" x="0px" y="0px"
	 viewBox="0 0 1800 1000" style="enable-background:new 0 0 1800 1000;" xml:space="preserve">
<style type="text/css">
	.st0{fill:#FFFFFF;}
	.st1{fill:#F9EE28;}
</style>
<g id="XMLID_1_">
	<path id="XMLID_6_" class="st0" d="M46.9502,349.7168h240.06738v68.29492H205.8916v273.18066h-77.81543V418.01172H46.9502V349.7168
		z"/>
	<path id="XMLID_8_" class="st0" d="M458.79053,343.50781c94.78516,0,171.77246,76.9873,171.77246,176.74023
		c0,99.75195-73.67578,177.15332-171.77246,177.15332C357.79639,697.40137,286.604,620,286.604,520.24805
		C286.604,420.49512,364.83301,343.50781,458.79053,343.50781z M458.79053,622.06934
		c62.08643,0,87.74902-50.91113,87.74902-101.82129c0-50.91113-27.31836-101.82227-87.74902-101.82227
		c-60.01709,0-88.16309,50.91113-88.16309,101.82227C370.62744,571.1582,395.04834,622.06934,458.79053,622.06934z"/>
	<path id="XMLID_11_" class="st0" d="M763.84473,349.7168c93.54346,0,172.18652,71.19238,172.18652,170.53125
		c0,99.75195-78.229,170.94434-172.18652,170.94434h-98.9248V349.7168H763.84473z M754.73828,621.65527
		c57.53369,0,96.85498-43.87402,97.26904-100.99414c0-57.11914-39.32129-101.40771-97.26904-101.40771h-12.00293v202.40186
		H754.73828z"/>
	<path id="XMLID_14_" class="st0" d="M1127.25586,343.50781c94.78613,0,171.77344,76.9873,171.77344,176.74023
		c0,99.75195-73.67676,177.15332-171.77344,177.15332c-100.99316,0-172.18652-77.40137-172.18652-177.15332
		C955.06934,420.49512,1033.29883,343.50781,1127.25586,343.50781z M1127.25586,622.06934
		c62.08691,0,87.74902-50.91113,87.74902-101.82129c0-50.91113-27.31738-101.82227-87.74902-101.82227
		c-60.0166,0-88.16211,50.91113-88.16211,101.82227C1039.09375,571.1582,1063.51367,622.06934,1127.25586,622.06934z"/>
</g>
<g id="XMLID_2_">
	<path id="XMLID_4_" class="st1" d="M1505.42578,515.7627l-34.36523-103.6748
		c-13.94531-41.7041-27.14355-62.55566-39.59473-62.55566c-11.79004,0-30.62988,16.36572-56.52832,49.08887l5.97656-31.90234
		c24.73535-35.6958,48.80859-53.54395,72.2168-53.54395c29.21777,0,53.54004,28.98779,72.96387,86.95996l21.91406,64.78467
		l60.26367-73.75342c42.49707-51.9917,79.27148-77.99121,110.31738-77.99121c11.45508,0,21.5791,3.32275,30.38086,9.96094
		l-42.08496,42.08887c-6.14355-3.32275-11.54102-4.98438-16.18652-4.98438c-17.59863,0-51.38477,28.5791-101.35254,85.73389
		L1554.4834,485.604l39.3457,116.13818c14.44336,42.86719,28.80078,64.29883,43.08105,64.29883
		c13.44727,0,30.87891-13.95313,52.29492-41.85938l-5.47852,27.91406c-23.24512,32.20996-46.9834,48.31055-71.2207,48.31055
		c-28.88672,0-51.79688-24.33398-68.73047-73.00684l-31.37695-90.94824l-77.44629,95.68359
		c-37.02246,45.5166-67.32227,68.27148-90.89355,68.27148c-15.27637,0-29.71973-7.30762-43.33008-21.91406l39.59473-39.35742
		c5.47852,8.80957,12.28418,13.20996,20.41992,13.20996c17.43164,0,52.54395-30.4043,105.33691-91.2207L1505.42578,515.7627z"/>
</g>
<g id="XMLID_3_">
</g>
<g id="XMLID_17_">
</g>
<g id="XMLID_18_">
</g>
<g id="XMLID_19_">
</g>
<g id="XMLID_20_">
</g>
<g id="XMLID_21_">
</g>
</svg>
